<svg xmlns="http://www.w3.org/2000/svg" viewBox="0 0 280 300">

  <!-- Background blob -->
  <circle cx="140" cy="158" r="118" fill="#ebebeb"/>

  <!-- Main browser window -->
  <rect x="50" y="46" width="172" height="120" rx="6" fill="#f5f5f5" stroke="#c8c8c8" stroke-width="1"/>
  <rect x="50" y="46" width="172" height="24" rx="6" fill="#d3d3d3"/>
  <rect x="50" y="58" width="172" height="12" fill="#d3d3d3"/>
  <circle cx="64" cy="58" r="3" fill="#f5f5f5" opacity="0.7"/>
  <circle cx="74" cy="58" r="3" fill="#f5f5f5" opacity="0.7"/>
  <circle cx="84" cy="58" r="3" fill="#f5f5f5" opacity="0.7"/>
  <rect x="66" y="82" width="116" height="6" rx="3" fill="#d3d3d3"/>
  <rect x="66" y="95" width="88" height="6" rx="3" fill="#d3d3d3"/>
  <rect x="66" y="108" width="130" height="6" rx="3" fill="#c8c8c8"/>
  <rect x="66" y="121" width="76" height="6" rx="3" fill="#c8c8c8"/>
  <rect x="66" y="134" width="104" height="6" rx="3" fill="#c8c8c8"/>

  <!-- Nav panel left -->
  <rect x="16" y="148" width="50" height="90" rx="5" fill="#8e8e8e"/>
  <rect x="27" y="164" width="28" height="5" rx="2" fill="#f5f5f5" opacity="0.8"/>
  <rect x="27" y="177" width="22" height="5" rx="2" fill="#f5f5f5" opacity="0.6"/>
  <rect x="27" y="190" width="26" height="5" rx="2" fill="#f5f5f5" opacity="0.6"/>
  <rect x="27" y="203" width="20" height="5" rx="2" fill="#f5f5f5" opacity="0.4"/>
  <rect x="27" y="216" width="24" height="5" rx="2" fill="#f5f5f5" opacity="0.4"/>

  <!-- Floating content card bottom centre -->
  <rect x="72" y="184" width="86" height="62" rx="5" fill="#f5f5f5" stroke="#d3d3d3" stroke-width="1"/>
  <rect x="84" y="198" width="62" height="5" rx="2" fill="#c8c8c8"/>
  <rect x="84" y="210" width="50" height="5" rx="2" fill="#d3d3d3"/>
  <rect x="84" y="222" width="56" height="5" rx="2" fill="#d3d3d3"/>
  <rect x="84" y="234" width="44" height="5" rx="2" fill="#d3d3d3"/>

  <!-- Floating card right -->
  <rect x="166" y="176" width="96" height="74" rx="5" fill="#f5f5f5" stroke="#c8c8c8" stroke-width="1"/>
  <rect x="166" y="176" width="96" height="20" rx="5" fill="#c8c8c8"/>
  <rect x="166" y="186" width="96" height="10" fill="#c8c8c8"/>
  <rect x="178" y="208" width="60" height="5" rx="2" fill="#d3d3d3"/>
  <rect x="178" y="219" width="48" height="5" rx="2" fill="#d3d3d3"/>
  <rect x="178" y="230" width="54" height="5" rx="2" fill="#d3d3d3"/>

  <!-- Dashed circle accent top right -->
  <circle cx="244" cy="50" r="22" fill="none" stroke="#c8c8c8" stroke-width="1.5" stroke-dasharray="4 3"/>

  <!-- Dashed rect accent bottom left -->
  <rect x="12" y="254" width="48" height="34" rx="4" fill="none" stroke="#c8c8c8" stroke-width="1.5" stroke-dasharray="4 3"/>

  <!-- Small dot accents -->
  <circle cx="38" cy="128" r="5" fill="#d3d3d3"/>
  <circle cx="250" cy="172" r="7" fill="#d3d3d3"/>

</svg>
