<svg width="261" height="142" viewBox="0 0 261 142" fill="none" xmlns="http://www.w3.org/2000/svg">
<rect width="261" height="32" rx="8" fill="#696969"/>
<path d="M247 14L241 20L235 14L236.4 12.6L241 17.2L245.6 12.6L247 14Z" fill="#D3D3D3"/>
<g clip-path="url(#clip0_2051_415)">
<rect y="40" width="261" height="102" rx="8" fill="#696969"/>
<rect width="261" height="32" transform="translate(0 40)" fill="#696969"/>
<path d="M235 58L241 52L247 58L245.6 59.4L241 54.8L236.4 59.4L235 58Z" fill="#D3D3D3"/>
<rect width="261" height="70" transform="translate(0 72)" fill="#D3D3D3"/>
<rect width="148" height="2" transform="translate(16 88)" fill="#A9A9A9"/>
<rect width="58" height="2" transform="translate(16 106)" fill="#A9A9A9"/>
<rect width="104" height="2" transform="translate(16 124)" fill="#A9A9A9"/>
</g>
<defs>
<clipPath id="clip0_2051_415">
<rect y="40" width="261" height="102" rx="8" fill="white"/>
</clipPath>
</defs>
</svg>
