<svg width="200" height="56" viewBox="0 0 200 56" fill="none" xmlns="http://www.w3.org/2000/svg">
<rect width="200" height="56" rx="8" fill="#D3D3D3"/>
<path d="M28.713 32.713C28.9043 32.521 29 32.2833 29 32C29 31.7167 28.904 31.4793 28.712 31.288C28.52 31.0967 28.2827 31.0007 28 31C27.7173 30.9993 27.48 31.0953 27.288 31.288C27.096 31.4807 27 31.718 27 32C27 32.282 27.096 32.5197 27.288 32.713C27.48 32.9063 27.7173 33.002 28 33C28.2827 32.998 28.5203 32.903 28.713 32.713ZM27 29H29V23H27V29ZM28 38C26.6167 38 25.3167 37.7373 24.1 37.212C22.8833 36.6867 21.825 35.9743 20.925 35.075C20.025 34.1757 19.3127 33.1173 18.788 31.9C18.2633 30.6827 18.0007 29.3827 18 28C17.9993 26.6173 18.262 25.3173 18.788 24.1C19.314 22.8827 20.0263 21.8243 20.925 20.925C21.8237 20.0257 22.882 19.3133 24.1 18.788C25.318 18.2627 26.618 18 28 18C29.382 18 30.682 18.2627 31.9 18.788C33.118 19.3133 34.1763 20.0257 35.075 20.925C35.9737 21.8243 36.6863 22.8827 37.213 24.1C37.7397 25.3173 38.002 26.6173 38 28C37.998 29.3827 37.7353 30.6827 37.212 31.9C36.6887 33.1173 35.9763 34.1757 35.075 35.075C34.1737 35.9743 33.1153 36.687 31.9 37.213C30.6847 37.739 29.3847 38.0013 28 38Z" fill="#696969"/>
<rect width="124" height="2" transform="translate(56 27)" fill="#A9A9A9"/>
</svg>
