<svg width="160" height="24" viewBox="0 0 160 24" fill="none" xmlns="http://www.w3.org/2000/svg">
<g clip-path="url(#clip0_2083_293)">
<path d="M6.75556 15.7333L13.0222 9.46667L11.7778 8.22222L6.75556 13.2444L4.22222 10.7111L2.97778 11.9556L6.75556 15.7333ZM1.77778 20C1.28889 20 0.870518 19.8261 0.522667 19.4782C0.174815 19.1304 0.000592593 18.7117 0 18.2222V5.77778C0 5.28889 0.174222 4.87052 0.522667 4.52267C0.871111 4.17481 1.28948 4.00059 1.77778 4H14.2222C14.7111 4 15.1298 4.17422 15.4782 4.52267C15.8267 4.87111 16.0006 5.28948 16 5.77778V18.2222C16 18.7111 15.8261 19.1298 15.4782 19.4782C15.1304 19.8267 14.7117 20.0006 14.2222 20H1.77778Z" fill="#696969"/>
</g>
<rect width="136" height="2" transform="translate(24 11)" fill="#A9A9A9"/>
<defs>
<clipPath id="clip0_2083_293">
<rect width="16" height="16" fill="white" transform="translate(0 4)"/>
</clipPath>
</defs>
</svg>
