<svg width="220" height="144" viewBox="0 0 220 144" fill="none" xmlns="http://www.w3.org/2000/svg">
<g clip-path="url(#clip0_2051_387)">
<rect width="220" height="32" fill="#696969"/>
<line x1="16" y1="15" x2="184" y2="15" stroke="#D3D3D3" stroke-width="2"/>
<path d="M194 18L200 12L206 18L204.6 19.4L200 14.8L195.4 19.4L194 18Z" fill="#D3D3D3"/>
<path d="M0 32H220V136C220 140.418 216.418 144 212 144H8.00001C3.58173 144 0 140.418 0 136V32Z" fill="#D3D3D3"/>
<line x1="16" y1="45" x2="204" y2="45" stroke="#696969" stroke-width="2"/>
<line x1="16" y1="73" x2="204" y2="73" stroke="#696969" stroke-width="2"/>
<rect width="220" height="28" transform="translate(0 88)" fill="#B3B3B3"/>
<line x1="16" y1="101" x2="204" y2="101" stroke="#696969" stroke-width="2"/>
<line x1="16" y1="129" x2="204" y2="129" stroke="#696969" stroke-width="2"/>
</g>
<defs>
<clipPath id="clip0_2051_387">
<rect width="220" height="144" rx="8" fill="white"/>
</clipPath>
</defs>
</svg>
