<svg width="160" height="32" viewBox="0 0 160 32" fill="none" xmlns="http://www.w3.org/2000/svg">
<path d="M0 8C0 3.58172 3.58172 0 8 0H128V32H8C3.58172 32 0 28.4183 0 24V8Z" fill="#D3D3D3"/>
<rect width="104" height="2" transform="translate(12 15)" fill="#696969"/>
<path d="M128 0H152C156.418 0 160 3.58172 160 8V24C160 28.4183 156.418 32 152 32H128V0Z" fill="#B3B3B3"/>
<path d="M144 17.6667C143.764 17.6667 143.566 17.5867 143.407 17.4267C143.247 17.2667 143.167 17.069 143.167 16.8334C143.166 16.5979 143.246 16.4001 143.407 16.2401C143.567 16.0801 143.765 16.0001 144 16.0001C144.235 16.0001 144.433 16.0801 144.594 16.2401C144.755 16.4001 144.835 16.5979 144.833 16.8334C144.832 17.069 144.752 17.267 144.593 17.4276C144.435 17.5881 144.237 17.6679 144 17.6667ZM140.073 17.4267C139.913 17.2679 139.833 17.0701 139.833 16.8334C139.833 16.5967 139.913 16.399 140.073 16.2401C140.233 16.0812 140.431 16.0012 140.667 16.0001C140.902 15.999 141.1 16.079 141.261 16.2401C141.421 16.4012 141.501 16.599 141.5 16.8334C141.499 17.0679 141.419 17.2659 141.26 17.4276C141.101 17.5892 140.903 17.669 140.667 17.6667C140.43 17.6645 140.232 17.5845 140.073 17.4267ZM147.333 17.6667C147.097 17.6667 146.899 17.5867 146.74 17.4267C146.581 17.2667 146.501 17.069 146.5 16.8334C146.499 16.5979 146.579 16.4001 146.74 16.2401C146.901 16.0801 147.098 16.0001 147.333 16.0001C147.568 16.0001 147.766 16.0801 147.927 16.2401C148.089 16.4001 148.168 16.5979 148.167 16.8334C148.165 17.069 148.085 17.267 147.927 17.4276C147.768 17.5881 147.571 17.6679 147.333 17.6667ZM144 21.0001C143.764 21.0001 143.566 20.9201 143.407 20.7601C143.247 20.6001 143.167 20.4023 143.167 20.1667C143.166 19.9312 143.246 19.7334 143.407 19.5734C143.567 19.4134 143.765 19.3334 144 19.3334C144.235 19.3334 144.433 19.4134 144.594 19.5734C144.755 19.7334 144.835 19.9312 144.833 20.1667C144.832 20.4023 144.752 20.6004 144.593 20.7609C144.435 20.9215 144.237 21.0012 144 21.0001ZM140.073 20.7601C139.913 20.6012 139.833 20.4034 139.833 20.1667C139.833 19.9301 139.913 19.7323 140.073 19.5734C140.233 19.4145 140.431 19.3345 140.667 19.3334C140.902 19.3323 141.1 19.4123 141.261 19.5734C141.421 19.7345 141.501 19.9323 141.5 20.1667C141.499 20.4012 141.419 20.5992 141.26 20.7609C141.101 20.9226 140.903 21.0023 140.667 21.0001C140.43 20.9979 140.232 20.9179 140.073 20.7601ZM147.333 21.0001C147.097 21.0001 146.899 20.9201 146.74 20.7601C146.581 20.6001 146.501 20.4023 146.5 20.1667C146.499 19.9312 146.579 19.7334 146.74 19.5734C146.901 19.4134 147.098 19.3334 147.333 19.3334C147.568 19.3334 147.766 19.4134 147.927 19.5734C148.089 19.7334 148.168 19.9312 148.167 20.1667C148.165 20.4023 148.085 20.6004 147.927 20.7609C147.768 20.9215 147.571 21.0012 147.333 21.0001ZM138.167 24.3334C137.708 24.3334 137.316 24.1704 136.99 23.8442C136.664 23.5181 136.501 23.1256 136.5 22.6667V11.0001C136.5 10.5417 136.663 10.1495 136.99 9.82341C137.317 9.4973 137.709 9.33397 138.167 9.33341H139V7.66675H140.667V9.33341H147.333V7.66675H149V9.33341H149.833C150.292 9.33341 150.684 9.49675 151.011 9.82341C151.337 10.1501 151.501 10.5423 151.5 11.0001V22.6667C151.5 23.1251 151.337 23.5176 151.011 23.8442C150.685 24.1709 150.292 24.334 149.833 24.3334H138.167ZM138.167 22.6667H149.833V14.3334H138.167V22.6667Z" fill="#696969"/>
</svg>
