<svg width="275" height="125" viewBox="0 0 275 125" fill="none" xmlns="http://www.w3.org/2000/svg">
<rect width="275" height="125" rx="8" fill="#D3D3D3"/>
<path d="M40.3 82.0001L37.4 77.1001L31.9 75.9001C31.4 75.8001 31 75.5421 30.7 75.1261C30.4 74.7101 30.2833 74.2514 30.35 73.7501L30.9 68.1001L27.15 63.8001C26.8167 63.4334 26.65 63.0001 26.65 62.5001C26.65 62.0001 26.8167 61.5667 27.15 61.2001L30.9 56.9001L30.35 51.2501C30.2833 50.7501 30.4 50.2914 30.7 49.8741C31 49.4567 31.4 49.1987 31.9 49.1001L37.4 47.9001L40.3 43.0001C40.5667 42.5667 40.9333 42.2747 41.4 42.1241C41.8667 41.9734 42.3333 41.9987 42.8 42.2001L48 44.4001L53.2 42.2001C53.6667 42.0001 54.1333 41.9747 54.6 42.1241C55.0667 42.2734 55.4333 42.5654 55.7 43.0001L58.6 47.9001L64.1 49.1001C64.6 49.2001 65 49.4587 65.3 49.8761C65.6 50.2934 65.7167 50.7514 65.65 51.2501L65.1 56.9001L68.85 61.2001C69.1833 61.5667 69.35 62.0001 69.35 62.5001C69.35 63.0001 69.1833 63.4334 68.85 63.8001L65.1 68.1001L65.65 73.7501C65.7167 74.2501 65.6 74.7087 65.3 75.1261C65 75.5434 64.6 75.8014 64.1 75.9001L58.6 77.1001L55.7 82.0001C55.4333 82.4334 55.0667 82.7254 54.6 82.8761C54.1333 83.0267 53.6667 83.0014 53.2 82.8001L48 80.6001L42.8 82.8001C42.3333 83.0001 41.8667 83.0254 41.4 82.8761C40.9333 82.7267 40.5667 82.4347 40.3 82.0001ZM48 72.5001C48.5667 72.5001 49.042 72.3081 49.426 71.9241C49.81 71.5401 50.0013 71.0654 50 70.5001C49.9987 69.9347 49.8067 69.4601 49.424 69.0761C49.0413 68.6921 48.5667 68.5001 48 68.5001C47.4333 68.5001 46.9587 68.6921 46.576 69.0761C46.1933 69.4601 46.0013 69.9347 46 70.5001C45.9987 71.0654 46.1907 71.5407 46.576 71.9261C46.9613 72.3114 47.436 72.5027 48 72.5001ZM48 64.5001C48.5667 64.5001 49.042 64.3081 49.426 63.9241C49.81 63.5401 50.0013 63.0654 50 62.5001V54.5001C50 53.9334 49.808 53.4587 49.424 53.0761C49.04 52.6934 48.5653 52.5014 48 52.5001C47.4347 52.4987 46.96 52.6907 46.576 53.0761C46.192 53.4614 46 53.9361 46 54.5001V62.5001C46 63.0667 46.192 63.5421 46.576 63.9261C46.96 64.3101 47.4347 64.5014 48 64.5001Z" fill="#696969"/>
<line x1="104" y1="23" x2="251" y2="23" stroke="#696969" stroke-width="2"/>
<line x1="104" y1="39" x2="181" y2="39" stroke="#696969" stroke-width="2"/>
<line x1="104" y1="55" x2="213" y2="55" stroke="#696969" stroke-width="2"/>
<rect x="104" y="80" width="69.5" height="21" rx="8" fill="#696969"/>
<rect x="182.5" y="81" width="67.5" height="19" rx="7" stroke="#696969" stroke-width="2"/>
</svg>
