<svg width="340" height="200" viewBox="0 0 340 200" fill="none" xmlns="http://www.w3.org/2000/svg">
<rect x="36" y="37" width="268" height="126" rx="4" fill="#c9b8e8"/>
<path d="M74.3334 117.5L71.1667 112.167L65.1667 110.833L65.7501 104.667L61.6667 100L65.7501 95.3333L65.1667 89.1667L71.1667 87.8333L74.3334 82.5L80.0001 84.9167L85.6667 82.5L88.8334 87.8333L94.8334 89.1667L94.2501 95.3333L98.3334 100L94.2501 104.667L94.8334 110.833L88.8334 112.167L85.6667 117.5L80.0001 115.083L74.3334 117.5ZM81.1884 107.853C81.5073 107.536 81.6667 107.14 81.6667 106.667C81.6667 106.193 81.5067 105.798 81.1867 105.48C80.8667 105.162 80.4712 105.002 80.0001 105C79.529 104.998 79.1334 105.158 78.8134 105.48C78.4934 105.802 78.3334 106.198 78.3334 106.667C78.3334 107.136 78.4934 107.532 78.8134 107.855C79.1334 108.178 79.529 108.338 80.0001 108.333C80.4712 108.329 80.8673 108.169 81.1884 107.853ZM78.3334 101.667H81.6667V91.6667H78.3334V101.667Z" fill="#6b4f9a"/>
<rect width="148" height="2" transform="translate(132 61)" fill="#9d7dc4"/>
<rect width="58" height="2" transform="translate(132 79)" fill="#9d7dc4"/>
<rect width="104" height="2" transform="translate(132 97)" fill="#9d7dc4"/>
<rect x="132" y="123" width="70" height="16" rx="4" fill="#6b4f9a"/>
<rect x="210" y="123" width="70" height="16" rx="4" fill="#9d7dc4"/>
</svg>
