<svg width="160" height="106" viewBox="0 0 160 106" fill="none" xmlns="http://www.w3.org/2000/svg">
<rect width="160" height="2" fill="#696969"/>
<g clip-path="url(#clip0_2051_515)">
<path d="M6.75556 33.7333L13.0222 27.4667L11.7778 26.2222L6.75556 31.2444L4.22222 28.7111L2.97778 29.9556L6.75556 33.7333ZM1.77778 38C1.28889 38 0.870518 37.8261 0.522667 37.4782C0.174815 37.1304 0.000592593 36.7117 0 36.2222V23.7778C0 23.2889 0.174222 22.8705 0.522667 22.5227C0.871111 22.1748 1.28948 22.0006 1.77778 22H14.2222C14.7111 22 15.1298 22.1742 15.4782 22.5227C15.8267 22.8711 16.0006 23.2895 16 23.7778V36.2222C16 36.7111 15.8261 37.1298 15.4782 37.4782C15.1304 37.8267 14.7117 38.0006 14.2222 38H1.77778Z" fill="#696969"/>
</g>
<rect width="136" height="2" transform="translate(24 29)" fill="#696969"/>
<g clip-path="url(#clip1_2051_515)">
<path d="M1.77778 70C1.28889 70 0.870518 69.8261 0.522667 69.4782C0.174815 69.1304 0.000592593 68.7117 0 68.2222V55.7778C0 55.2889 0.174222 54.8705 0.522667 54.5227C0.871111 54.1748 1.28948 54.0006 1.77778 54H14.2222C14.7111 54 15.1298 54.1742 15.4782 54.5227C15.8267 54.8711 16.0006 55.2895 16 55.7778V68.2222C16 68.7111 15.8261 69.1298 15.4782 69.4782C15.1304 69.8267 14.7117 70.0006 14.2222 70H1.77778ZM1.77778 68.2222H14.2222V55.7778H1.77778V68.2222Z" fill="#B3B3B3"/>
</g>
<rect width="136" height="2" transform="translate(24 61)" fill="#696969"/>
<g clip-path="url(#clip2_2051_515)">
<path d="M1.77778 102C1.28889 102 0.870518 101.826 0.522667 101.478C0.174815 101.13 0.000592593 100.712 0 100.222V87.7778C0 87.2889 0.174222 86.8705 0.522667 86.5227C0.871111 86.1748 1.28948 86.0006 1.77778 86H14.2222C14.7111 86 15.1298 86.1742 15.4782 86.5227C15.8267 86.8711 16.0006 87.2895 16 87.7778V100.222C16 100.711 15.8261 101.13 15.4782 101.478C15.1304 101.827 14.7117 102.001 14.2222 102H1.77778ZM1.77778 100.222H14.2222V87.7778H1.77778V100.222Z" fill="#B3B3B3"/>
</g>
<rect width="136" height="2" transform="translate(24 93)" fill="#696969"/>
<defs>
<clipPath id="clip0_2051_515">
<rect width="16" height="16" fill="white" transform="translate(0 22)"/>
</clipPath>
<clipPath id="clip1_2051_515">
<rect width="16" height="16" fill="white" transform="translate(0 54)"/>
</clipPath>
<clipPath id="clip2_2051_515">
<rect width="16" height="16" fill="white" transform="translate(0 86)"/>
</clipPath>
</defs>
</svg>
