<svg width="342" height="110" viewBox="0 0 342 110" fill="none" xmlns="http://www.w3.org/2000/svg">
<g clip-path="url(#clip0_2066_305)">
<path d="M0 8C0 3.58172 3.58172 0 8 0H333.333C337.752 0 341.333 3.58172 341.333 8V24C341.333 28.4183 337.752 32 333.333 32H0V8Z" fill="#A9A9A9"/>
<rect width="113.778" height="32" fill="#696969"/>
<rect width="61.7778" height="2" transform="translate(16 15)" fill="#D3D3D3"/>
<path d="M87.7778 18L93.7778 12L99.7778 18L98.3778 19.4L93.7778 14.8L89.1778 19.4L87.7778 18Z" fill="#D3D3D3"/>
<rect width="113.778" height="32" transform="translate(113.778)" fill="#A9A9A9"/>
<rect width="61.7778" height="2" transform="translate(129.778 15)" fill="#D3D3D3"/>
<path d="M213.556 14L207.556 20L201.556 14L202.956 12.6L207.556 17.2L212.156 12.6L213.556 14Z" fill="#D3D3D3"/>
<rect width="113.778" height="32" transform="translate(227.556)" fill="#A9A9A9"/>
<rect width="61.7778" height="2" transform="translate(243.556 15)" fill="#D3D3D3"/>
<path d="M327.333 14L321.333 20L315.333 14L316.733 12.6L321.333 17.2L325.933 12.6L327.333 14Z" fill="#D3D3D3"/>
</g>
<g clip-path="url(#clip1_2066_305)">
<path d="M0 32H113.778V102C113.778 106.418 110.196 110 105.778 110H7.99999C3.58172 110 0 106.418 0 102V32Z" fill="#D3D3D3"/>
<rect width="81.7778" height="2" transform="translate(16 44)" fill="#A9A9A9"/>
<rect width="81.7778" height="2" transform="translate(16 70)" fill="#A9A9A9"/>
<rect width="81.7778" height="2" transform="translate(16 96)" fill="#A9A9A9"/>
</g>
<defs>
<clipPath id="clip0_2066_305">
<path d="M0 8C0 3.58172 3.58172 0 8 0H333.333C337.752 0 341.333 3.58172 341.333 8V24C341.333 28.4183 337.752 32 333.333 32H0V8Z" fill="white"/>
</clipPath>
<clipPath id="clip1_2066_305">
<path d="M0 32H113.778V102C113.778 106.418 110.196 110 105.778 110H7.99999C3.58172 110 0 106.418 0 102V32Z" fill="white"/>
</clipPath>
</defs>
</svg>
