<svg width="220" height="160" viewBox="0 0 220 160" fill="none" xmlns="http://www.w3.org/2000/svg">
<g clip-path="url(#clip0_2067_299)">
<rect width="220" height="32" fill="#696969"/>
<line x1="16" y1="15" x2="184" y2="15" stroke="#D3D3D3" stroke-width="2"/>
<path d="M194 18L200 12L206 18L204.6 19.4L200 14.8L195.4 19.4L194 18Z" fill="#D3D3D3"/>
<path d="M0 32H220V152C220 156.418 216.418 160 212 160H8.00001C3.58173 160 0 156.418 0 152V32Z" fill="#D3D3D3"/>
<rect x="17" y="41" width="14" height="14" rx="3" stroke="#B3B3B3" stroke-width="2"/>
<line x1="40" y1="47" x2="204" y2="47" stroke="#696969" stroke-width="2"/>
<rect x="17" y="73" width="14" height="14" rx="3" stroke="#B3B3B3" stroke-width="2"/>
<line x1="40" y1="79" x2="204" y2="79" stroke="#696969" stroke-width="2"/>
<rect width="220" height="32" transform="translate(0 96)" fill="#B3B3B3"/>
<g clip-path="url(#clip1_2067_299)">
<rect x="16" y="104" width="16" height="16" rx="4" fill="#696969"/>
<path d="M22.3667 116L18.5667 112.2L19.5167 111.25L22.3667 114.1L28.4833 107.983L29.4333 108.933L22.3667 116Z" fill="#D3D3D3"/>
</g>
<line x1="40" y1="111" x2="193" y2="111" stroke="#696969" stroke-width="2"/>
<g clip-path="url(#clip2_2067_299)">
<rect x="16" y="136" width="16" height="16" rx="4" fill="#696969"/>
<path d="M22.3667 148L18.5667 144.2L19.5167 143.25L22.3667 146.1L28.4833 139.983L29.4333 140.933L22.3667 148Z" fill="#D3D3D3"/>
</g>
<line x1="40" y1="143" x2="193" y2="143" stroke="#696969" stroke-width="2"/>
</g>
<defs>
<clipPath id="clip0_2067_299">
<rect width="220" height="160" rx="8" fill="white"/>
</clipPath>
<clipPath id="clip1_2067_299">
<rect x="16" y="104" width="16" height="16" rx="4" fill="white"/>
</clipPath>
<clipPath id="clip2_2067_299">
<rect x="16" y="136" width="16" height="16" rx="4" fill="white"/>
</clipPath>
</defs>
</svg>
