<svg width="220" height="160" viewBox="0 0 220 160" fill="none" xmlns="http://www.w3.org/2000/svg">
<g clip-path="url(#clip0_2067_299)">
<rect width="220" height="32" fill="#696969"/>
<path d="M194 18L200 12L206 18L204.6 19.4L200 14.8L195.4 19.4L194 18Z" fill="#D3D3D3"/>
<path d="M0 32H220V152C220 156.418 216.418 160 212 160H8.00001C3.58173 160 0 156.418 0 152V32Z" fill="#D3D3D3"/>
<g clip-path="url(#clip1_2067_299)">
<path d="M17.7778 56C17.2889 56 16.8705 55.8261 16.5227 55.4782C16.1748 55.1304 16.0006 54.7117 16 54.2222V41.7778C16 41.2889 16.1742 40.8705 16.5227 40.5227C16.8711 40.1748 17.2895 40.0006 17.7778 40H30.2222C30.7111 40 31.1298 40.1742 31.4782 40.5227C31.8267 40.8711 32.0006 41.2895 32 41.7778V54.2222C32 54.7111 31.8261 55.1298 31.4782 55.4782C31.1304 55.8267 30.7117 56.0006 30.2222 56H17.7778ZM17.7778 54.2222H30.2222V41.7778H17.7778V54.2222Z" fill="#B3B3B3"/>
</g>
<rect width="164" height="2" transform="translate(40 47)" fill="#B3B3B3"/>
<g clip-path="url(#clip2_2067_299)">
<path d="M17.7778 88C17.2889 88 16.8705 87.8261 16.5227 87.4782C16.1748 87.1304 16.0006 86.7117 16 86.2222V73.7778C16 73.2889 16.1742 72.8705 16.5227 72.5227C16.8711 72.1748 17.2895 72.0006 17.7778 72H30.2222C30.7111 72 31.1298 72.1742 31.4782 72.5227C31.8267 72.8711 32.0006 73.2895 32 73.7778V86.2222C32 86.7111 31.8261 87.1298 31.4782 87.4782C31.1304 87.8267 30.7117 88.0006 30.2222 88H17.7778ZM17.7778 86.2222H30.2222V73.7778H17.7778V86.2222Z" fill="#B3B3B3"/>
</g>
<rect width="164" height="2" transform="translate(40 79)" fill="#B3B3B3"/>
<rect width="220" height="32" transform="translate(0 96)" fill="#B3B3B3"/>
<g clip-path="url(#clip3_2067_299)">
<path d="M22.7556 115.733L29.0222 109.467L27.7778 108.222L22.7556 113.244L20.2222 110.711L18.9778 111.956L22.7556 115.733ZM17.7778 120C17.2889 120 16.8705 119.826 16.5227 119.478C16.1748 119.13 16.0006 118.712 16 118.222V105.778C16 105.289 16.1742 104.871 16.5227 104.523C16.8711 104.175 17.2895 104.001 17.7778 104H30.2222C30.7111 104 31.1298 104.174 31.4782 104.523C31.8267 104.871 32.0006 105.289 32 105.778V118.222C32 118.711 31.8261 119.13 31.4782 119.478C31.1304 119.827 30.7117 120.001 30.2222 120H17.7778Z" fill="#696969"/>
</g>
<rect width="164" height="2" transform="translate(40 111)" fill="#D3D3D3"/>
<g clip-path="url(#clip4_2067_299)">
<path d="M22.7556 147.733L29.0222 141.467L27.7778 140.222L22.7556 145.244L20.2222 142.711L18.9778 143.956L22.7556 147.733ZM17.7778 152C17.2889 152 16.8705 151.826 16.5227 151.478C16.1748 151.13 16.0006 150.712 16 150.222V137.778C16 137.289 16.1742 136.871 16.5227 136.523C16.8711 136.175 17.2895 136.001 17.7778 136H30.2222C30.7111 136 31.1298 136.174 31.4782 136.523C31.8267 136.871 32.0006 137.289 32 137.778V150.222C32 150.711 31.8261 151.13 31.4782 151.478C31.1304 151.827 30.7117 152.001 30.2222 152H17.7778Z" fill="#696969"/>
</g>
<rect width="164" height="2" transform="translate(40 143)" fill="#B3B3B3"/>
</g>
<defs>
<clipPath id="clip0_2067_299">
<rect width="220" height="160" rx="8" fill="white"/>
</clipPath>
<clipPath id="clip1_2067_299">
<rect width="16" height="16" fill="white" transform="translate(16 40)"/>
</clipPath>
<clipPath id="clip2_2067_299">
<rect width="16" height="16" fill="white" transform="translate(16 72)"/>
</clipPath>
<clipPath id="clip3_2067_299">
<rect width="16" height="16" fill="white" transform="translate(16 104)"/>
</clipPath>
<clipPath id="clip4_2067_299">
<rect width="16" height="16" fill="white" transform="translate(16 136)"/>
</clipPath>
</defs>
</svg>
