<svg width="160" height="88" viewBox="0 0 160 88" fill="none" xmlns="http://www.w3.org/2000/svg">
<g clip-path="url(#clip0_2096_306)">
<path d="M10.8304 14.8304C11.6101 14.0501 12 13.1067 12 12C12 10.8933 11.6099 9.95013 10.8296 9.1704C10.0493 8.39067 9.10613 8.00053 8 8C6.89386 7.99947 5.95066 8.3896 5.1704 9.1704C4.39013 9.9512 4 10.8944 4 12C4 13.1056 4.39013 14.0491 5.1704 14.8304C5.95066 15.6117 6.89386 16.0016 8 16C9.10613 15.9984 10.0496 15.6083 10.8304 14.8296M8 20C6.89333 20 5.85333 19.7899 4.88 19.3696C3.90667 18.9493 3.06 18.3795 2.34 17.66C1.62 16.9405 1.05013 16.0939 0.630401 15.12C0.210668 14.1461 0.000534346 13.1061 1.01266e-06 12C-0.00053232 10.8939 0.209601 9.85387 0.630401 8.88C1.0512 7.90613 1.62107 7.05947 2.34 6.34C3.05893 5.62053 3.9056 5.05067 4.88 4.6304C5.8544 4.21013 6.8944 4 8 4C9.10559 4 10.1456 4.21013 11.12 4.6304C12.0944 5.05067 12.9411 5.62053 13.66 6.34C14.3789 7.05947 14.9491 7.90613 15.3704 8.88C15.7917 9.85387 16.0016 10.8939 16 12C15.9984 13.1061 15.7883 14.1461 15.3696 15.12C14.9509 16.0939 14.3811 16.9405 13.66 17.66C12.9389 18.3795 12.0923 18.9496 11.12 19.3704C10.1477 19.7912 9.10773 20.0011 8 20ZM8 18.4C9.78666 18.4 11.3 17.78 12.54 16.54C13.78 15.3 14.4 13.7867 14.4 12C14.4 10.2133 13.78 8.7 12.54 7.46C11.3 6.22 9.78666 5.6 8 5.6C6.21333 5.6 4.7 6.22 3.46 7.46C2.22 8.7 1.6 10.2133 1.6 12C1.6 13.7867 2.22 15.3 3.46 16.54C4.7 17.78 6.21333 18.4 8 18.4Z" fill="#696969"/>
</g>
<rect width="136" height="2" transform="translate(24 11)" fill="#A9A9A9"/>
<g clip-path="url(#clip1_2096_306)">
<path d="M8 52C6.89333 52 5.85333 51.7899 4.88 51.3696C3.90667 50.9493 3.06 50.3795 2.34 49.66C1.62 48.9405 1.05013 48.0939 0.630401 47.12C0.210668 46.1461 0.000534346 45.1061 1.01266e-06 44C-0.00053232 42.8939 0.209601 41.8539 0.630401 40.88C1.0512 39.9061 1.62107 39.0595 2.34 38.34C3.05893 37.6205 3.9056 37.0507 4.88 36.6304C5.8544 36.2101 6.8944 36 8 36C9.10559 36 10.1456 36.2101 11.12 36.6304C12.0944 37.0507 12.9411 37.6205 13.66 38.34C14.3789 39.0595 14.9491 39.9061 15.3704 40.88C15.7917 41.8539 16.0016 42.8939 16 44C15.9984 45.1061 15.7883 46.1461 15.3696 47.12C14.9509 48.0939 14.3811 48.9405 13.66 49.66C12.9389 50.3795 12.0923 50.9496 11.12 51.3704C10.1477 51.7912 9.10773 52.0011 8 52ZM8 50.4C9.78666 50.4 11.3 49.78 12.54 48.54C13.78 47.3 14.4 45.7867 14.4 44C14.4 42.2133 13.78 40.7 12.54 39.46C11.3 38.22 9.78666 37.6 8 37.6C6.21333 37.6 4.7 38.22 3.46 39.46C2.22 40.7 1.6 42.2133 1.6 44C1.6 45.7867 2.22 47.3 3.46 48.54C4.7 49.78 6.21333 50.4 8 50.4Z" fill="#A9A9A9"/>
</g>
<rect width="136" height="2" transform="translate(24 43)" fill="#A9A9A9"/>
<g clip-path="url(#clip2_2096_306)">
<path d="M8 84C6.89333 84 5.85333 83.7899 4.88 83.3696C3.90667 82.9493 3.06 82.3795 2.34 81.66C1.62 80.9405 1.05013 80.0939 0.630401 79.12C0.210668 78.1461 0.000534346 77.1061 1.01266e-06 76C-0.00053232 74.8939 0.209601 73.8539 0.630401 72.88C1.0512 71.9061 1.62107 71.0595 2.34 70.34C3.05893 69.6205 3.9056 69.0507 4.88 68.6304C5.8544 68.2101 6.8944 68 8 68C9.10559 68 10.1456 68.2101 11.12 68.6304C12.0944 69.0507 12.9411 69.6205 13.66 70.34C14.3789 71.0595 14.9491 71.9061 15.3704 72.88C15.7917 73.8539 16.0016 74.8939 16 76C15.9984 77.1061 15.7883 78.1461 15.3696 79.12C14.9509 80.0939 14.3811 80.9405 13.66 81.66C12.9389 82.3795 12.0923 82.9496 11.12 83.3704C10.1477 83.7912 9.10773 84.0011 8 84ZM8 82.4C9.78666 82.4 11.3 81.78 12.54 80.54C13.78 79.3 14.4 77.7867 14.4 76C14.4 74.2133 13.78 72.7 12.54 71.46C11.3 70.22 9.78666 69.6 8 69.6C6.21333 69.6 4.7 70.22 3.46 71.46C2.22 72.7 1.6 74.2133 1.6 76C1.6 77.7867 2.22 79.3 3.46 80.54C4.7 81.78 6.21333 82.4 8 82.4Z" fill="#A9A9A9"/>
</g>
<rect width="136" height="2" transform="translate(24 75)" fill="#A9A9A9"/>
<defs>
<clipPath id="clip0_2096_306">
<rect width="16" height="16" fill="white" transform="translate(0 4)"/>
</clipPath>
<clipPath id="clip1_2096_306">
<rect width="16" height="16" fill="white" transform="translate(0 36)"/>
</clipPath>
<clipPath id="clip2_2096_306">
<rect width="16" height="16" fill="white" transform="translate(0 68)"/>
</clipPath>
</defs>
</svg>
