<?xml version="1.0" encoding="utf-8"?>
<!-- Generator: Adobe Illustrator 24.3.0, SVG Export Plug-In . SVG Version: 6.00 Build 0)  -->
<svg version="1.1" id="Layer_1" xmlns="http://www.w3.org/2000/svg" xmlns:xlink="http://www.w3.org/1999/xlink" x="0px" y="0px"
	 viewBox="0 0 1500 992.7" style="enable-background:new 0 0 1500 992.7;" xml:space="preserve">
<style type="text/css">
	.st0{fill:#FFFFFF;}
</style>
<g>
	<path class="st0" d="M1346.1,489.6c-59.4-102.7-144.9-188.9-247.1-249.2c-105.3-62.1-226-94.9-349-94.9c-123,0-243.6,32.8-349,94.9
		c-102.2,60.3-187.7,146.4-247.1,249.2l-3.9,6.7l3.9,6.7C213.3,605.8,298.8,692,401,752.3c105.3,62.1,226,94.9,349,94.9
		c123,0,243.6-32.8,349-94.9c102.2-60.3,187.7-146.4,247.1-249.2l3.9-6.7L1346.1,489.6z M750,833.7
		c-249.7,0-467.8-135.7-584.4-337.4C282.2,294.7,500.3,159,750,159c249.7,0,467.8,135.7,584.4,337.4
		C1217.8,698,999.7,833.7,750,833.7z"/>
	<path class="st0" d="M1056.5,312.4c-12.5-7.4-25.3-14.2-38.3-20.7c43.4,56.8,69.2,127.6,69.2,204.6c0,76.9-25.8,147.8-69.2,204.6
		c13-6.4,25.8-13.3,38.3-20.7c78-46,144.8-109,195.3-183.9C1201.3,421.5,1134.5,358.4,1056.5,312.4z"/>
	<path class="st0" d="M704,510.5h-87.3c0-129.4,87.9-238.5,207.1-271c-23.5-6.8-48.2-10.4-73.8-10.4
		c-147.4,0-267.2,119.9-267.2,267.2c0,92.9,47.6,174.8,119.7,222.7V587.7C650.8,587.7,691.6,555,704,510.5z"/>
	<path class="st0" d="M897.5,273.7V405c-48.4,0-89.1,32.7-101.5,77.2h87.3c0,129.4-87.9,238.5-207.1,271
		c23.5,6.8,48.2,10.5,73.8,10.5c147.4,0,267.2-119.9,267.2-267.2C1017.2,403.5,969.6,321.6,897.5,273.7z"/>
	<path class="st0" d="M443.5,312.4c-78,46-144.8,109-195.3,183.9c50.4,74.9,117.3,137.9,195.3,183.9c12.5,7.4,25.3,14.3,38.3,20.7
		c-43.4-56.8-69.2-127.6-69.2-204.6c0-76.9,25.8-147.8,69.2-204.6C468.8,298.2,456,305.1,443.5,312.4z"/>
</g>
</svg>
