<svg width="98" height="57" viewBox="0 0 98 57" fill="none" xmlns="http://www.w3.org/2000/svg">
<path d="M20.4018 49.288C28.9563 54.3296 38.7657 57 48.7594 57C58.7531 57 68.551 54.3296 77.117 49.288C85.4297 44.396 92.3723 37.3976 97.1964 29.0525L97.5188 28.5L97.1964 27.9475C92.3723 19.6024 85.4182 12.604 77.117 7.71204C68.5625 2.67044 58.7531 0 48.7594 0C38.7657 0 28.9678 2.67044 20.4018 7.71204C12.0891 12.604 5.14651 19.6024 0.322375 27.9475L0 28.5L0.322375 29.0525C5.15802 37.3976 12.1006 44.396 20.4018 49.288ZM48.7594 1.0935C69.0576 1.0935 86.7653 12.1206 96.2523 28.5C86.7653 44.8794 69.0576 55.9065 48.7594 55.9065C28.4612 55.9065 10.7536 44.8794 1.26648 28.5C10.7536 12.1206 28.4612 1.0935 48.7594 1.0935Z" fill="white"/>
<path d="M73.6629 43.4406C79.9953 39.7112 85.4297 34.5775 89.5285 28.4999C85.4297 22.4224 79.9953 17.3002 73.6629 13.5593C72.6498 12.9608 71.602 12.3967 70.5543 11.8788C74.0774 16.4945 76.1729 22.2497 76.1729 28.4999C76.1729 34.7501 74.0774 40.5054 70.5543 45.1211C71.6136 44.5916 72.6498 44.0391 73.6629 43.4406Z" fill="white"/>
<path d="M36.7739 46.5944V35.9242C40.7 35.9242 44.0158 33.2653 45.029 29.651H37.9367C37.9367 19.1419 45.0751 10.2788 54.7694 7.6429C52.8582 7.09039 50.8548 6.79112 48.7709 6.79112C36.7969 6.79112 27.0565 16.529 27.0565 28.4999C27.045 36.0393 30.9135 42.6924 36.7739 46.5944Z" fill="white"/>
<path d="M52.5013 27.3489H59.5936C59.5936 37.858 52.4552 46.7211 42.7609 49.357C44.6722 49.9095 46.6755 50.2088 48.7594 50.2088C60.7334 50.2088 70.4738 40.4709 70.4738 28.5C70.4738 20.9606 66.6053 14.3075 60.7449 10.4054V21.0757C56.8188 21.0757 53.503 23.7346 52.5013 27.3489Z" fill="white"/>
<path d="M23.8559 43.4406C24.8691 44.0391 25.9168 44.6031 26.9645 45.1211C23.4414 40.5054 21.346 34.7501 21.346 28.4999C21.346 22.2497 23.4414 16.4945 26.9645 11.8788C25.9053 12.3967 24.8691 12.9608 23.8559 13.5593C17.5235 17.2887 12.0891 22.4224 7.99036 28.4999C12.0891 34.5775 17.5235 39.6997 23.8559 43.4406Z" fill="white"/>
</svg>
