<svg width="276" height="96" viewBox="0 0 276 96" fill="none" xmlns="http://www.w3.org/2000/svg">
<g clip-path="url(#clip0_2093_315)">
<rect width="67.5" height="22.5" fill="#A9A9A9"/>
<rect width="67.5" height="22.5" transform="translate(69.5)" fill="#696969"/>
<path d="M123 12.5833L127 8.58325L131 12.5833L130.067 13.5166L127 10.4499L123.933 13.5166L123 12.5833Z" fill="#D3D3D3"/>
<rect width="67.5" height="22.5" transform="translate(139)" fill="#A9A9A9"/>
<path d="M200.5 9.91675L196.5 13.9167L192.5 9.91675L193.433 8.98342L196.5 12.0501L199.567 8.98342L200.5 9.91675Z" fill="#D3D3D3"/>
<rect width="67.5" height="22.5" transform="translate(208.5)" fill="#A9A9A9"/>
<path d="M270 9.91675L266 13.9167L262 9.91675L262.933 8.98342L266 12.0501L269.067 8.98342L270 9.91675Z" fill="#D3D3D3"/>
<rect width="67.5" height="22.5" transform="translate(0 24.5)" fill="#A9A9A9"/>
<rect width="67.5" height="22.5" transform="translate(69.5 24.5)" fill="#D3D3D3"/>
<rect width="67.5" height="22.5" transform="translate(139 24.5)" fill="#D3D3D3"/>
<rect width="67.5" height="22.5" transform="translate(208.5 24.5)" fill="#D3D3D3"/>
<rect width="67.5" height="22.5" transform="translate(0 49)" fill="#A9A9A9"/>
<rect width="67.5" height="22.5" transform="translate(69.5 49)" fill="#D3D3D3"/>
<rect width="67.5" height="22.5" transform="translate(139 49)" fill="#D3D3D3"/>
<rect width="67.5" height="22.5" transform="translate(208.5 49)" fill="#D3D3D3"/>
<rect width="67.5" height="22.5" transform="translate(0 73.5)" fill="#A9A9A9"/>
<rect width="67.5" height="22.5" transform="translate(69.5 73.5)" fill="#D3D3D3"/>
<rect width="67.5" height="22.5" transform="translate(139 73.5)" fill="#D3D3D3"/>
<rect width="67.5" height="22.5" transform="translate(208.5 73.5)" fill="#D3D3D3"/>
</g>
<defs>
<clipPath id="clip0_2093_315">
<rect width="276" height="96" rx="8" fill="white"/>
</clipPath>
</defs>
</svg>
