<svg width="200" height="120" viewBox="0 0 200 120" fill="none" xmlns="http://www.w3.org/2000/svg">
<rect width="200" height="64" rx="8" fill="#D3D3D3"/>
<line x1="16" y1="15" x2="163" y2="15" stroke="#696969" stroke-width="2"/>
<line x1="16" y1="31" x2="93" y2="31" stroke="#696969" stroke-width="2"/>
<line x1="16" y1="47" x2="125" y2="47" stroke="#696969" stroke-width="2"/>
<path d="M100 88L76 64L124 64L100 88Z" fill="#D3D3D3"/>
<path d="M101.117 111.517C101.439 111.195 101.6 110.8 101.6 110.333C101.6 109.867 101.439 109.472 101.117 109.149C100.796 108.827 100.401 108.666 99.9333 108.667C99.4658 108.668 99.0715 108.829 98.7507 109.151C98.4298 109.473 98.2684 109.867 98.2667 110.333C98.2649 110.8 98.4262 111.195 98.7507 111.517C99.0751 111.84 99.4693 112.001 99.9333 112C100.397 111.999 100.792 111.838 101.117 111.516M98.7333 106.867H101.2C101.2 106.133 101.284 105.556 101.451 105.133C101.618 104.711 102.09 104.133 102.867 103.4C103.444 102.822 103.9 102.272 104.233 101.749C104.567 101.227 104.733 100.599 104.733 99.8668C104.733 98.6223 104.278 97.6668 103.367 97.0001C102.456 96.3334 101.378 96.0001 100.133 96.0001C98.8667 96.0001 97.8391 96.3334 97.0507 97.0001C96.2622 97.6668 95.712 98.4668 95.4 99.4001L97.6 100.267C97.7111 99.8668 97.9613 99.4334 98.3507 98.9668C98.74 98.5001 99.3342 98.2668 100.133 98.2668C100.844 98.2668 101.378 98.4614 101.733 98.8508C102.089 99.2401 102.267 99.6676 102.267 100.133C102.267 100.578 102.133 100.995 101.867 101.384C101.6 101.773 101.267 102.134 100.867 102.467C99.8889 103.333 99.2889 103.989 99.0667 104.433C98.8444 104.878 98.7333 105.689 98.7333 106.867ZM100 117.333C98.1555 117.333 96.4222 116.984 94.8 116.284C93.1778 115.585 91.7667 114.634 90.5667 113.433C89.3667 112.233 88.4169 110.821 87.7173 109.2C87.0178 107.579 86.6675 105.845 86.6667 104C86.6658 102.155 87.016 100.421 87.7173 98.8001C88.4187 97.1788 89.3684 95.7676 90.5667 94.5668C91.7649 93.3659 93.176 92.4161 94.8 91.7174C96.424 91.0188 98.1573 90.6685 100 90.6668C101.843 90.665 103.576 91.0152 105.2 91.7174C106.824 92.4196 108.235 93.3694 109.433 94.5668C110.632 95.7641 111.582 97.1752 112.284 98.8001C112.986 100.425 113.336 102.158 113.333 104C113.331 105.842 112.98 107.575 112.283 109.2C111.585 110.825 110.635 112.236 109.433 113.433C108.232 114.631 106.82 115.581 105.2 116.284C103.58 116.987 101.846 117.337 100 117.333Z" fill="#696969"/>
</svg>
