<svg width="200" height="126" viewBox="0 0 200 126" fill="none" xmlns="http://www.w3.org/2000/svg">
<rect width="200" height="70" rx="8" fill="#D3D3D3"/>
<rect width="148" height="2" transform="translate(16 16)" fill="#B3B3B3"/>
<rect width="58" height="2" transform="translate(16 34)" fill="#B3B3B3"/>
<rect width="104" height="2" transform="translate(16 52)" fill="#B3B3B3"/>
<path d="M100 94L76 70L124 70L100 94Z" fill="#D3D3D3"/>
<path d="M101.117 117.517C101.439 117.195 101.6 116.8 101.6 116.333C101.6 115.867 101.439 115.472 101.117 115.149C100.796 114.827 100.401 114.666 99.9333 114.667C99.4658 114.668 99.0715 114.829 98.7507 115.151C98.4298 115.473 98.2684 115.867 98.2667 116.333C98.2649 116.8 98.4262 117.195 98.7507 117.517C99.0751 117.84 99.4693 118.001 99.9333 118C100.397 117.999 100.792 117.838 101.117 117.516M98.7333 112.867H101.2C101.2 112.133 101.284 111.556 101.451 111.133C101.618 110.711 102.09 110.133 102.867 109.4C103.444 108.822 103.9 108.272 104.233 107.749C104.567 107.227 104.733 106.599 104.733 105.867C104.733 104.622 104.278 103.667 103.367 103C102.456 102.333 101.378 102 100.133 102C98.8667 102 97.8391 102.333 97.0507 103C96.2622 103.667 95.712 104.467 95.4 105.4L97.6 106.267C97.7111 105.867 97.9613 105.433 98.3507 104.967C98.74 104.5 99.3342 104.267 100.133 104.267C100.844 104.267 101.378 104.461 101.733 104.851C102.089 105.24 102.267 105.668 102.267 106.133C102.267 106.578 102.133 106.995 101.867 107.384C101.6 107.773 101.267 108.134 100.867 108.467C99.8889 109.333 99.2889 109.989 99.0667 110.433C98.8444 110.878 98.7333 111.689 98.7333 112.867ZM100 123.333C98.1555 123.333 96.4222 122.984 94.8 122.284C93.1778 121.585 91.7667 120.634 90.5667 119.433C89.3667 118.233 88.4169 116.821 87.7173 115.2C87.0178 113.579 86.6675 111.845 86.6667 110C86.6658 108.155 87.016 106.421 87.7173 104.8C88.4187 103.179 89.3684 101.768 90.5667 100.567C91.7649 99.3659 93.176 98.4161 94.8 97.7174C96.424 97.0188 98.1573 96.6685 100 96.6668C101.843 96.665 103.576 97.0152 105.2 97.7174C106.824 98.4196 108.235 99.3694 109.433 100.567C110.632 101.764 111.582 103.175 112.284 104.8C112.986 106.425 113.336 108.158 113.333 110C113.331 111.842 112.98 113.575 112.283 115.2C111.585 116.825 110.635 118.236 109.433 119.433C108.232 120.631 106.82 121.581 105.2 122.284C103.58 122.987 101.846 123.337 100 123.333Z" fill="#696969"/>
</svg>
